<svg width="122" height="45" viewBox="0 0 122 45" fill="none" xmlns="http://www.w3.org/2000/svg">
<path d="M24.7578 30.3478C24.7578 21.4489 30.1073 16.2734 38.696 16.2734C47.1181 16.2734 52.5232 21.4489 52.5232 30.3478C52.5232 39.1276 47.2847 44.4817 38.696 44.4817C29.9453 44.4817 24.7578 39.1276 24.7578 30.3478ZM32.4951 30.2882C32.4951 35.1339 34.2582 37.946 38.6404 37.946C43.0227 37.946 44.7859 35.1339 44.7859 30.2882C44.7859 25.4426 42.9071 22.6901 38.6404 22.6901C34.3738 22.6901 32.4951 25.4472 32.4951 30.2882Z" fill="#0E4D68"/>
<path d="M55.0703 36.0315L62.0117 34.6255C62.6919 37.5567 64.5106 39.0727 67.8656 39.0727C70.4848 39.0727 71.7944 38.23 71.8499 36.485C71.8499 34.8499 70.7671 33.9523 65.8341 32.9951C58.43 31.4149 55.9358 28.9921 55.9358 24.4305C55.9358 19.31 59.6378 16.2734 67.2594 16.2734C75.1262 16.2734 77.6667 19.31 78.6339 23.9862L71.7527 25.3923C71.1279 22.6442 69.8739 21.5634 67.0881 21.5634C64.5245 21.5634 63.275 22.4061 63.275 23.9862C63.275 25.4472 64.0154 26.5189 68.8281 27.4761C77.2456 29.2211 79.2957 31.9828 79.2957 36.146C79.2957 41.326 75.8251 44.4816 67.6898 44.4816C58.5965 44.4817 55.8108 40.8772 55.0703 36.0315Z" fill="#0E4D68"/>
<path d="M83.5664 43.6865V21.1484H91.3039V43.6865H83.5664Z" fill="#0E4D68"/>
<path d="M95.6797 30.9099C95.6797 21.6766 100.742 16.2539 109.507 16.2539C117.813 16.2539 121.737 21.0905 121.737 28.4688C121.737 29.5955 121.682 30.6672 121.566 32.0732H103.306C103.769 36.3509 105.749 38.2654 109.451 38.2654C113.154 38.2654 114.226 36.58 114.911 34.5464L121.39 36.2959C120.197 40.9126 117.068 44.4025 109.387 44.4025C101.256 44.4208 95.6797 39.9737 95.6797 30.9099ZM103.362 28.2031H114.625C114.514 24.0399 112.746 22.011 109.28 22.011C105.814 22.011 103.759 23.8155 103.362 28.2215V28.2031Z" fill="#0E4D68"/>
<path d="M3.96119 18.6847C4.74819 18.6876 5.51836 18.4601 6.17416 18.0311C6.82996 17.6021 7.34188 16.9908 7.64509 16.2747C7.94829 15.5586 8.02915 14.7698 7.87741 14.0084C7.72567 13.2469 7.34817 12.547 6.79271 11.9972C6.23724 11.4475 5.52882 11.0726 4.75714 10.9202C3.98547 10.7677 3.18527 10.8445 2.45789 11.1408C1.7305 11.4371 1.10866 11.9396 0.671117 12.5846C0.233572 13.2297 8.05192e-06 13.9882 6.82299e-06 14.7642C-0.0019435 15.8021 0.414295 16.7982 1.15716 17.5334C1.90002 18.2686 2.90866 18.6828 3.96119 18.6847Z" fill="#81C3D0"/>
<path d="M87.1717 18.6847C87.9587 18.6877 88.729 18.4603 89.3848 18.0313C90.0407 17.6023 90.5527 16.9911 90.8559 16.275C91.1592 15.5589 91.2401 14.7701 91.0885 14.0086C90.9368 13.2471 90.5593 12.5472 90.0038 11.9974C89.4484 11.4476 88.74 11.0727 87.9683 10.9202C87.1966 10.7677 86.3964 10.8445 85.6689 11.1407C84.9415 11.437 84.3197 11.9395 83.8821 12.5846C83.4445 13.2296 83.2109 13.9882 83.2109 14.7642C83.2091 15.802 83.6253 16.7979 84.3681 17.5331C85.1108 18.2683 86.1193 18.6825 87.1717 18.6847Z" fill="#81C3D0"/>
<path d="M19.6185 4.79984V0H6.26337V7.78595H11.4693V33.3515C11.4693 35.5362 10.5114 36.9377 8.29947 36.9377C7.36756 36.9232 6.43863 36.8297 5.52295 36.6583L5.125 43.5283C6.63885 43.7927 8.17346 43.9245 9.71088 43.9222C16.7864 43.9222 19.6185 39.6674 19.6185 33.2783V4.79984Z" fill="#0E4D68"/>
</svg>
