<svg data-v-fde0c5aa="" xmlns="http://www.w3.org/2000/svg" viewBox="0 0 300 300" class="iconLeftSlogan"><!----><defs data-v-fde0c5aa=""><!----></defs><rect data-v-fde0c5aa="" fill="#e4e4e4" x="0" y="0" width="300px" height="300px" class="logo-background-square"></rect><defs data-v-fde0c5aa=""><!----></defs><g data-v-fde0c5aa="" id="68a48cc3-599a-4419-a910-55836d262332" fill="#2f2e41" transform="matrix(3.1689797538460267,0,0,3.1689797538460267,127.21974347837212,116.97934203577636)"><path d="M4.45 10.65L4.45 10.65L4.45 10.65Q3.29 10.65 2.53 10.35L2.53 10.35L2.53 10.35Q1.78 10.04 1.32 9.52L1.32 9.52L1.32 9.52Q0.87 9.00 0.69 8.32L0.69 8.32L0.69 8.32Q0.50 7.64 0.50 6.89L0.50 6.89L0.50 6.89Q0.50 6.22 0.69 5.54L0.69 5.54L0.69 5.54Q0.87 4.87 1.27 4.33L1.27 4.33L1.27 4.33Q1.67 3.79 2.31 3.46L2.31 3.46L2.31 3.46Q2.95 3.12 3.88 3.12L3.88 3.12L3.88 3.12Q4.86 3.12 5.51 3.46L5.51 3.46L5.51 3.46Q6.16 3.79 6.55 4.33L6.55 4.33L6.55 4.33Q6.94 4.87 7.11 5.54L7.11 5.54L7.11 5.54Q7.27 6.22 7.27 6.89L7.27 6.89L7.27 7.52L2.31 7.52L2.31 7.52Q2.31 8.27 2.85 8.76L2.85 8.76L2.85 8.76Q3.39 9.25 4.33 9.25L4.33 9.25L4.33 9.25Q4.86 9.25 5.31 9.14L5.31 9.14L5.31 9.14Q5.75 9.03 6.08 8.89L6.08 8.89L6.08 8.89Q6.44 8.74 6.75 8.53L6.75 8.53L6.75 10.09L6.75 10.09Q6.75 10.11 6.57 10.19L6.57 10.19L6.57 10.19Q6.38 10.28 6.08 10.38L6.08 10.38L6.08 10.38Q5.77 10.49 5.35 10.57L5.35 10.57L5.35 10.57Q4.93 10.65 4.45 10.65ZM2.31 6.19L5.49 6.19L5.49 6.19Q5.49 5.95 5.42 5.66L5.42 5.66L5.42 5.66Q5.36 5.38 5.19 5.12L5.19 5.12L5.19 5.12Q5.01 4.87 4.70 4.70L4.70 4.70L4.70 4.70Q4.38 4.54 3.88 4.54L3.88 4.54L3.88 4.54Q3.44 4.54 3.14 4.70L3.14 4.70L3.14 4.70Q2.84 4.87 2.66 5.12L2.66 5.12L2.66 5.12Q2.48 5.38 2.39 5.66L2.39 5.66L2.39 5.66Q2.31 5.95 2.31 6.19L2.31 6.19ZM11.69 3.05L11.69 3.05L11.69 3.05Q11.41 3.05 11.26 3.14L11.26 3.14L11.26 3.14Q11.12 3.23 11.05 3.37L11.05 3.37L11.05 3.37Q10.98 3.50 10.96 3.67L10.96 3.67L10.96 3.67Q10.95 3.84 10.95 3.99L10.95 3.99L12.21 3.99L12.00 5.36L10.95 5.36L10.95 10.50L9.06 10.50L9.06 5.36L8.05 5.36L8.05 3.99L9.06 3.99L9.06 3.64L9.06 3.64Q9.06 2.91 9.33 2.48L9.33 2.48L9.33 2.48Q9.60 2.04 10.02 1.82L10.02 1.82L10.02 1.82Q10.43 1.60 10.91 1.53L10.91 1.53L10.91 1.53Q11.38 1.46 11.79 1.47L11.79 1.47L11.79 1.47Q12.19 1.48 12.47 1.53L12.47 1.53L12.47 1.53Q12.74 1.58 12.74 1.58L12.74 1.58L12.54 3.14L12.54 3.14Q12.43 3.12 12.29 3.09L12.29 3.09L12.29 3.09Q12.18 3.08 12.02 3.07L12.02 3.07L12.02 3.07Q11.86 3.05 11.69 3.05ZM16.62 3.12L16.62 3.12L16.62 3.12Q17.08 3.12 17.61 3.27L17.61 3.27L17.61 3.27Q18.14 3.42 18.61 3.75L18.61 3.75L18.61 3.75Q19.07 4.07 19.36 4.59L19.36 4.59L19.36 4.59Q19.66 5.11 19.64 5.85L19.64 5.85L19.64 10.50L18.27 10.50L18.27 10.50Q18.27 10.50 18.23 10.33L18.23 10.33L18.23 10.33Q18.19 10.16 18.14 9.95L18.14 9.95L18.14 9.95Q18.09 9.74 18.05 9.58L18.05 9.58L18.05 9.58Q18.00 9.42 18.00 9.44L18.00 9.44L18.00 9.44Q17.81 9.79 17.49 10.05L17.49 10.05L17.49 10.05Q17.21 10.29 16.77 10.47L16.77 10.47L16.77 10.47Q16.32 10.65 15.68 10.65L15.68 10.65L15.68 10.65Q15.23 10.65 14.80 10.52L14.80 10.52L14.80 10.52Q14.36 10.39 14.02 10.13L14.02 10.13L14.02 10.13Q13.68 9.87 13.46 9.48L13.46 9.48L13.46 9.48Q13.24 9.09 13.23 8.57L13.23 8.57L13.23 8.57Q13.20 8.02 13.38 7.59L13.38 7.59L13.38 7.59Q13.55 7.17 13.88 6.86L13.88 6.86L13.88 6.86Q14.21 6.55 14.67 6.36L14.67 6.36L14.67 6.36Q15.13 6.17 15.68 6.10L15.68 6.10L15.68 6.10Q16.20 6.03 16.81 6.03L16.81 6.03L16.81 6.03Q17.43 6.03 17.92 6.06L17.92 6.06L17.92 5.84L17.92 5.84Q17.92 5.24 17.65 4.93L17.65 4.93L17.65 4.93Q17.39 4.63 16.99 4.54L16.99 4.54L16.99 4.54Q16.59 4.45 16.11 4.52L16.11 4.52L16.11 4.52Q15.64 4.59 15.20 4.72L15.20 4.72L15.20 4.72Q14.77 4.86 14.44 5.00L14.44 5.00L14.44 5.00Q14.11 5.15 14.03 5.22L14.03 5.22L14.03 3.81L14.03 3.81Q14.04 3.79 14.28 3.69L14.28 3.69L14.28 3.69Q14.52 3.58 14.88 3.46L14.88 3.46L14.88 3.46Q15.25 3.33 15.70 3.23L15.70 3.23L15.70 3.23Q16.16 3.12 16.62 3.12ZM17.51 8.68L17.51 8.68L17.51 8.68Q17.75 8.37 17.83 7.99L17.83 7.99L17.83 7.99Q17.91 7.62 17.91 7.20L17.91 7.20L17.09 7.20L17.09 7.20Q16.77 7.20 16.41 7.24L16.41 7.24L16.41 7.24Q16.04 7.28 15.74 7.41L15.74 7.41L15.74 7.41Q15.43 7.53 15.22 7.78L15.22 7.78L15.22 7.78Q15.01 8.02 15.01 8.44L15.01 8.44L15.01 8.44Q15.01 8.90 15.35 9.11L15.35 9.11L15.35 9.11Q15.69 9.32 16.20 9.32L16.20 9.32L16.20 9.32Q16.63 9.32 16.96 9.15L16.96 9.15L16.96 9.15Q17.29 8.97 17.51 8.68ZM23.32 8.48L23.32 8.48L23.32 8.48Q23.34 8.72 23.45 8.86L23.45 8.86L23.45 8.86Q23.56 9.00 23.72 9.06L23.72 9.06L23.72 9.06Q23.88 9.13 24.09 9.13L24.09 9.13L24.09 9.13Q24.29 9.14 24.51 9.11L24.51 9.11L24.51 10.56L24.51 10.56Q24.32 10.60 24.17 10.62L24.17 10.62L24.17 10.62Q24.02 10.64 23.91 10.65L23.91 10.65L23.91 10.65Q23.79 10.67 23.70 10.65L23.70 10.65L23.70 10.65Q23.17 10.65 22.75 10.61L22.75 10.61L22.75 10.61Q22.33 10.57 22.04 10.34L22.04 10.34L22.04 10.34Q21.74 10.11 21.59 9.64L21.59 9.64L21.59 9.64Q21.43 9.17 21.43 8.30L21.43 8.30L21.43 1.55L23.32 1.55L23.32 8.48ZM31.40 3.29L32.87 3.29L32.87 9.63L32.87 9.63Q32.87 10.32 32.66 10.93L32.66 10.93L32.66 10.93Q32.44 11.54 31.97 12.01L31.97 12.01L31.97 12.01Q31.50 12.47 30.77 12.76L30.77 12.76L30.77 12.76Q30.04 13.05 29.02 13.06L29.02 13.06L29.02 13.06Q28.48 13.06 28.03 12.98L28.03 12.98L28.03 12.98Q27.58 12.91 27.26 12.81L27.26 12.81L27.26 12.81Q26.88 12.70 26.57 12.54L26.57 12.54L26.71 11.05L26.71 11.05Q27.02 11.20 27.38 11.33L27.38 11.33L27.38 11.33Q27.71 11.44 28.12 11.52L28.12 11.52L28.12 11.52Q28.53 11.59 29.02 11.59L29.02 11.59L29.02 11.59Q29.61 11.59 29.98 11.43L29.98 11.43L29.98 11.43Q30.35 11.27 30.57 11.03L30.57 11.03L30.57 11.03Q30.79 10.78 30.88 10.50L30.88 10.50L30.88 10.50Q30.98 10.22 31.00 9.97L31.00 9.97L31.00 9.97Q31.02 9.73 31.01 9.56L31.01 9.56L31.01 9.56Q31.00 9.39 31.00 9.39L31.00 9.39L31.00 9.39Q31.00 9.39 30.88 9.56L30.88 9.56L30.88 9.56Q30.77 9.73 30.52 9.94L30.52 9.94L30.52 9.94Q30.27 10.15 29.86 10.32L29.86 10.32L29.86 10.32Q29.46 10.50 28.87 10.50L28.87 10.50L28.87 10.50Q28.24 10.50 27.68 10.31L27.68 10.31L27.68 10.31Q27.12 10.12 26.70 9.68L26.70 9.68L26.70 9.68Q26.28 9.24 26.03 8.53L26.03 8.53L26.03 8.53Q25.79 7.81 25.79 6.78L25.79 6.78L25.79 6.78Q25.79 5.74 26.10 5.04L26.10 5.04L26.10 5.04Q26.40 4.34 26.87 3.91L26.87 3.91L26.87 3.91Q27.33 3.49 27.87 3.30L27.87 3.30L27.87 3.30Q28.41 3.12 28.87 3.12L28.87 3.12L28.87 3.12Q29.41 3.12 29.82 3.28L29.82 3.28L29.82 3.28Q30.23 3.44 30.49 3.64L30.49 3.64L30.49 3.64Q30.74 3.84 30.88 4.00L30.88 4.00L30.88 4.00Q31.01 4.16 31.01 4.16L31.01 4.16L31.40 3.29ZM31.00 6.82L31.00 6.82L31.00 6.82Q31.00 5.68 30.55 5.13L30.55 5.13L30.55 5.13Q30.10 4.58 29.37 4.58L29.37 4.58L29.37 4.58Q28.64 4.58 28.20 5.13L28.20 5.13L28.20 5.13Q27.75 5.68 27.75 6.82L27.75 6.82L27.75 6.82Q27.75 7.95 28.20 8.50L28.20 8.50L28.20 8.50Q28.64 9.04 29.37 9.04L29.37 9.04L29.37 9.04Q30.10 9.04 30.55 8.50L30.55 8.50L30.55 8.50Q31.00 7.95 31.00 6.82ZM38.11 3.12L38.11 3.12L38.11 3.12Q38.67 3.12 39.33 3.29L39.33 3.29L39.33 3.29Q39.98 3.46 40.56 3.88L40.56 3.88L40.56 3.88Q41.13 4.30 41.52 5.03L41.52 5.03L41.52 5.03Q41.90 5.75 41.90 6.89L41.90 6.89L41.90 6.89Q41.90 8.02 41.52 8.75L41.52 8.75L41.52 8.75Q41.13 9.48 40.56 9.90L40.56 9.90L40.56 9.90Q39.98 10.32 39.33 10.49L39.33 10.49L39.33 10.49Q38.67 10.65 38.11 10.65L38.11 10.65L38.11 10.65Q37.55 10.65 36.89 10.49L36.89 10.49L36.89 10.49Q36.23 10.32 35.66 9.90L35.66 9.90L35.66 9.90Q35.10 9.48 34.72 8.75L34.72 8.75L34.72 8.75Q34.34 8.02 34.34 6.89L34.34 6.89L34.34 6.89Q34.34 5.75 34.72 5.03L34.72 5.03L34.72 5.03Q35.10 4.30 35.66 3.88L35.66 3.88L35.66 3.88Q36.23 3.46 36.89 3.29L36.89 3.29L36.89 3.29Q37.55 3.12 38.11 3.12ZM38.11 9.25L38.11 9.25L38.11 9.25Q38.89 9.25 39.42 8.64L39.42 8.64L39.42 8.64Q39.94 8.02 39.94 6.89L39.94 6.89L39.94 6.89Q39.94 5.75 39.42 5.14L39.42 5.14L39.42 5.14Q38.89 4.54 38.11 4.54L38.11 4.54L38.11 4.54Q37.35 4.54 36.83 5.14L36.83 5.14L36.83 5.14Q36.32 5.75 36.32 6.89L36.32 6.89L36.32 6.89Q36.32 7.45 36.46 7.89L36.46 7.89L36.46 7.89Q36.60 8.33 36.83 8.63L36.83 8.63L36.83 8.63Q37.07 8.93 37.40 9.09L37.40 9.09L37.40 9.09Q37.73 9.25 38.11 9.25Z"></path></g><defs data-v-fde0c5aa=""><!----></defs><g data-v-fde0c5aa="" id="8a89e028-49db-44ba-83a5-30ada82660df" stroke="none" fill="#26608a" transform="matrix(2.3688822923529735,0,0,2.3688822923529735,40,112.09788332235243)"><path d="M9.571 20.464l8.064 4.47 8.065-4.47v-8.939l-8.065-4.469-8.064 4.469z"></path><path d="M32 0H0v32h32l-5.054-5.172H5.054V5.172h21.892z"></path></g><defs data-v-fde0c5aa=""><!----></defs><g data-v-fde0c5aa="" id="ba199b61-1c9a-4633-8cb9-895a22feed59" fill="#2f2e41" transform="matrix(0.7778712427134786,0,0,0.7778712427134786,128.77311850338427,166.73268941524756)"><path d="M5.29 2.21L3.98 2.21L0.04 11.48L1.20 11.48L2.34 8.79L6.93 8.79L8.06 11.48L9.23 11.48ZM2.74 7.83L4.63 3.30L6.52 7.83ZM18.45 2.21L17.40 2.21L17.40 11.48L18.45 11.48ZM38.32 4.65C38.32 4.03 38.68 3.08 40.78 3.08C42.48 3.08 43.26 3.82 43.37 4.75L44.45 4.75C44.37 3.36 43.25 2.10 40.78 2.10C38.46 2.10 37.30 3.15 37.30 4.66C37.30 7.84 43.64 6.69 43.64 8.96C43.64 10.05 42.66 10.60 41.09 10.60C39.48 10.60 38.18 10.05 38.11 8.71L37.02 8.71C37.16 10.37 38.28 11.59 41.02 11.59C43.30 11.59 44.69 10.64 44.69 8.92C44.69 5.68 38.32 6.80 38.32 4.65ZM57.43 2.10C54.61 2.10 52.72 4.21 52.72 6.85C52.72 9.48 54.61 11.59 57.43 11.59C60.24 11.59 62.13 9.48 62.13 6.85C62.13 4.21 60.24 2.10 57.43 2.10ZM57.43 10.57C55.17 10.57 53.77 8.93 53.77 6.85C53.77 4.76 55.17 3.12 57.43 3.12C59.68 3.12 61.08 4.76 61.08 6.85C61.08 8.93 59.68 10.57 57.43 10.57ZM70.81 2.21L70.81 11.48L76.92 11.48L76.92 10.47L71.86 10.47L71.86 2.21ZM91.52 2.21L91.52 7.52C91.52 9.67 90.09 10.57 88.62 10.57C87.15 10.57 85.74 9.67 85.74 7.52L85.74 2.21L84.69 2.21L84.69 7.49C84.69 9.95 86.31 11.59 88.62 11.59C90.94 11.59 92.57 9.94 92.57 7.49L92.57 2.21ZM108.30 2.21L100.79 2.21L100.79 3.22L104.02 3.22L104.02 11.48L105.07 11.48L105.07 3.22L108.30 3.22ZM117.68 2.21L116.63 2.21L116.63 11.48L117.68 11.48ZM131.07 2.10C128.25 2.10 126.36 4.21 126.36 6.85C126.36 9.48 128.25 11.59 131.07 11.59C133.88 11.59 135.77 9.48 135.77 6.85C135.77 4.21 133.88 2.10 131.07 2.10ZM131.07 10.57C128.81 10.57 127.41 8.93 127.41 6.85C127.41 4.76 128.81 3.12 131.07 3.12C133.32 3.12 134.72 4.76 134.72 6.85C134.72 8.93 133.32 10.57 131.07 10.57ZM151.40 2.21L151.40 10.01L145.67 2.21L144.45 2.21L144.45 11.48L145.50 11.48L145.50 3.65L151.23 11.48L152.45 11.48L152.45 2.21ZM162.33 4.65C162.33 4.03 162.69 3.08 164.79 3.08C166.49 3.08 167.27 3.82 167.38 4.75L168.46 4.75C168.38 3.36 167.26 2.10 164.79 2.10C162.47 2.10 161.31 3.15 161.31 4.66C161.31 7.84 167.65 6.69 167.65 8.96C167.65 10.05 166.67 10.60 165.10 10.60C163.49 10.60 162.19 10.05 162.12 8.71L161.03 8.71C161.17 10.37 162.29 11.59 165.03 11.59C167.31 11.59 168.70 10.64 168.70 8.92C168.70 5.68 162.33 6.80 162.33 4.65Z"></path></g></svg>